<?xml version="1.0" encoding="UTF-8" standalone="no"?>
<!-- Created with Inkscape (http://www.inkscape.org/) -->

<svg
   xmlns:dc="http://purl.org/dc/elements/1.1/"
   xmlns:cc="http://creativecommons.org/ns#"
   xmlns:rdf="http://www.w3.org/1999/02/22-rdf-syntax-ns#"
   xmlns:svg="http://www.w3.org/2000/svg"
   xmlns="http://www.w3.org/2000/svg"
   xmlns:sodipodi="http://sodipodi.sourceforge.net/DTD/sodipodi-0.dtd"
   xmlns:inkscape="http://www.inkscape.org/namespaces/inkscape"
   width="744.09448819"
   height="1052.3622047"
   id="svg2"
   version="1.1"
   inkscape:version="0.47 r22583"
   sodipodi:docname="New document 1">
  <defs
     id="defs4">
    <inkscape:perspective
       sodipodi:type="inkscape:persp3d"
       inkscape:vp_x="0 : 526.18109 : 1"
       inkscape:vp_y="0 : 1000 : 0"
       inkscape:vp_z="744.09448 : 526.18109 : 1"
       inkscape:persp3d-origin="372.04724 : 350.78739 : 1"
       id="perspective10" />
  </defs>
  <sodipodi:namedview
     id="base"
     pagecolor="#ffffff"
     bordercolor="#666666"
     borderopacity="1.0"
     inkscape:pageopacity="0.0"
     inkscape:pageshadow="2"
     inkscape:zoom="0.24748737"
     inkscape:cx="287.91277"
     inkscape:cy="358.202"
     inkscape:document-units="px"
     inkscape:current-layer="layer1"
     showgrid="false"
     inkscape:window-width="1366"
     inkscape:window-height="706"
     inkscape:window-x="-8"
     inkscape:window-y="-8"
     inkscape:window-maximized="1" />
  <metadata
     id="metadata7">
    <rdf:RDF>
      <cc:Work
         rdf:about="">
        <dc:format>image/svg+xml</dc:format>
        <dc:type
           rdf:resource="http://purl.org/dc/dcmitype/StillImage" />
        <dc:title></dc:title>
      </cc:Work>
    </rdf:RDF>
  </metadata>
  <g
     inkscape:label="Layer 1"
     inkscape:groupmode="layer"
     id="layer1">
    <path
       id="path2825"
       d="m -123.0713,413.9391 c -16.0871,-36.15632 8.884,-90.13782 46.925199,-86.85424 -26.605199,1.16549 -71.560099,-46.06858 -34.832199,-66.40167 18.118999,2.18813 47.213299,-30.94517 15.293399,-32.48864 -40.573099,-13.26089 -66.276399,47.37975 -50.739299,84.12478 4.0383,31.53786 -12.9977,66.57098 4.7849,95.03728 4.8242,5.66849 11.8144,12.39185 18.568,6.58249 z"
       style="font-size:144px;font-style:normal;font-weight:normal;fill:#000000;fill-opacity:1;stroke:none;font-family:Lithos Pro Regular;-inkscape-font-specification:Lithos Pro Regular" />
    <path
       id="path2827"
       d="M 8.7188987,253.83121 C 44.180899,234.97938 69.680399,298.89443 44.800199,325.173 c -17.9491,30.39683 28.7889,91.54188 47.5153,63.35437 -16.6837,-28.8238 -39.118,-60.51622 -13.8431,-93.57242 20.4278,-44.80918 -37.6556,-76.31961 -69.6920003,-60.7683 -36.6253997,17.85182 -19.9505997,69.61515 -24.3460997,104.38058 -2.7003,20.82783 -4.5345,81.76135 25.4421997,51.60395 7.7146003,-45.14878 -9.28289999,-91.12963 -1.1576,-136.33997 z"
       style="font-size:144px;font-style:normal;font-weight:normal;fill:#000000;fill-opacity:1;stroke:none;font-family:Lithos Pro Regular;-inkscape-font-specification:Lithos Pro Regular" />
    <path
       style="font-size:144px;font-style:normal;font-weight:normal;fill:#000000;fill-opacity:1;stroke:none;font-family:Lithos Pro Regular;-inkscape-font-specification:Lithos Pro Regular"
       d="m 216.05051,234.67327 c -32.0542,-0.27277 -49.77185,53.96582 -54.94362,87.05739 -13.60669,31.39055 -50.44339,57.39846 -39.28162,96.73043 2.95326,6.69619 7.68292,12.1214 12.8045,16.6406 6.09586,-79.33961 110.94787,-107.9657 149.60293,-43.62135 4.55598,46.03844 41.54819,-6.0882 15.0471,-22.94105 -25.06049,-40.29994 -47.00096,-83.28794 -63.95019,-127.60263 -6.93198,-4.26923 -13.34313,-6.21287 -19.2791,-6.26339 z m -0.65107,53.40558 c 18.05286,0.0302 32.71527,12.03601 22.31745,39.76695 -16.43907,20.19092 -42.3581,6.17814 -62.72037,11.60024 -11.61933,-31.62709 17.19209,-51.40602 40.40292,-51.36719 z"
       id="path2829" />
    <path
       id="path2831"
       d="m 321.07059,234.55899 c 36.35973,6.04674 118.36834,-24.67101 109.29462,49.49846 -16.03872,52.88427 -55.79207,91.36211 -87.34487,130.08702 -30.24663,37.83738 -4.28274,105.79561 40.2998,76.58619 31.27493,-1.73109 85.38503,31.28445 96.62446,-22.16506 -28.58442,-20.91275 -109.27855,25.81923 -95.3843,-44.07708 28.07719,-63.11144 73.69947,-112.56219 103.71902,-173.92331 14.72796,-52.45802 -42.3372,-30.57448 -67.18407,-42.36766 -32.71415,-6.39234 -80.43155,-13.62163 -100.02466,26.36144 z"
       style="font-size:144px;font-style:normal;font-weight:normal;fill:#000000;fill-opacity:1;stroke:none;font-family:Lithos Pro Regular;-inkscape-font-specification:Lithos Pro Regular" />
    <path
       id="path2833"
       d="m 569.05758,308.50956 c 27.69797,-24.39726 -24.05959,-91.41863 -21.1982,-31.81214 1.88771,41.02023 -13.14807,84.49212 3.66258,123.53503 39.17811,0.58581 13.14262,-54.69794 15.23269,-80.58092 l 0.66238,-6.05241 1.64055,-5.08956 z"
       style="font-size:144px;font-style:normal;font-weight:normal;fill:#000000;fill-opacity:1;stroke:none;font-family:Lithos Pro Regular;-inkscape-font-specification:Lithos Pro Regular" />
    <path
       id="path2835"
       d="m 638.97594,234.19534 c 14.57926,54.9389 -17.80803,114.38006 7.20014,167.26024 11.62951,26.31149 86.78529,17.61685 76.34493,-9.05379 -70.03242,6.96418 -74.05993,-48.36544 -60.63613,-84.84748 9.02326,-23.97925 9.17918,-72.82219 -22.90894,-73.35897 z"
       style="font-size:144px;font-style:normal;font-weight:normal;fill:#000000;fill-opacity:1;stroke:none;font-family:Lithos Pro Regular;-inkscape-font-specification:Lithos Pro Regular"
       sodipodi:nodetypes="ccccc" />
    <path
       style="font-size:144px;font-style:normal;font-weight:normal;fill:#000000;fill-opacity:1;stroke:none;font-family:Bitstream Vera Sans"
       d="m 513.43119,474.35615 c -7.17496,0.21438 -12.08,5.8297 -8.28125,21.78125 59.7372,12.39334 26.61726,-22.3291 8.28125,-21.78125 z"
       id="path2940" />
    <path
       style="font-size:144px;font-style:normal;font-weight:normal;fill:#000000;fill-opacity:1;stroke:none;font-family:Bitstream Vera Sans"
       id="path2942"
       d="m 562.83691,470.34816 c -4.39814,-53.90267 88.90821,-25.45581 52.99009,18.68442 -16.39602,21.34767 -58.9753,12.93575 -52.99009,-18.68442 z m 10.59863,0 c -1.10396,48.29267 71.85502,-4.3935 23.7423,-20.69946 -12.59818,-5.23888 -28.38623,6.94574 -23.7423,20.69946 z" />
    <path
       style="font-size:144px;font-style:normal;font-weight:normal;fill:#000000;fill-opacity:1;stroke:none;font-family:Bitstream Vera Sans"
       id="path2944"
       d="m 631.87127,500.76911 c 0,-20.28064 0,-40.56127 0,-60.84191 24.04902,-5.35894 27.16906,12.47236 9.96922,22.89409 -2.78106,12.45988 9.00527,33.81311 -9.96922,37.94782 z" />
    <path
       style="font-size:144px;font-style:normal;font-weight:normal;fill:#000000;fill-opacity:1;stroke:none;font-family:Bitstream Vera Sans"
       id="path2946"
       d="m 669.28161,505.81063 c 9.99761,24.07485 62.40074,-6.12453 17.73806,-5.06172 -45.02589,-16.55731 -3.75184,-92.54796 29.67413,-50.89528 16.77775,25.84313 4.34258,87.22897 -35.94439,73.76191 -7.0291,-2.90551 -11.61172,-10.31131 -11.4678,-17.80491 z m 8.53619,-36.55098 c -3.48305,44.11309 66.72129,1.66748 24.60267,-18.09831 -11.89002,-7.20551 -29.4096,3.80393 -24.60267,18.09831 z" />
    <path
       style="fill:#000000;fill-opacity:1"
       d="m -106.6876,461.62421 c 100.0042987,16.92078 200.334699,-14.20899 300.71702,-3.90912 29.0329,2.59018 93.33487,-2.91318 98.05825,18.1968 -38.10141,28.53157 -89.68751,-0.38659 -134.05138,4.45614 -81.397991,-4.71168 -161.8556913,10.5167 -242.839191,12.56885 -19.188899,2.81063 -46.834099,-19.90745 -21.884699,-31.31267 z"
       id="path3017" />
    <path
       style="font-size:40px;font-style:normal;font-weight:normal;fill:#000000;fill-opacity:1;stroke:none;font-family:Bitstream Vera Sans"
       d="m 184.20744,724.73656 c -11.84352,44.44839 45.44486,-5.51278 0,0 z m -287.75704,31.80968 c -84.6713,0.86831 -14.909,152.40093 31.173399,71.55924 -3.449,-25.04082 -54.347199,37.04638 -55.302799,-18.82535 -17.8882,-77.56635 99.059799,3.10164 37.510899,-51.65386 l -7.3679,-2.35377 -6.013599,1.27374 z m 85.805899,0 c -91.406699,3.50605 -7.353,158.81363 38.3638,65.64128 11.3338,-27.23351 -4.4182,-67.9057 -38.3638,-65.64128 z m 99.5725,0 c -57.3461,-7.81454 -37.2055,45.82193 -40.364,83.71346 18.7243,23.16733 21.2189,-123.00101 50.3491,-47.48542 -9.2629,42.83632 27.501221,71.86493 13.516901,13.34512 31.57891,-78.81531 39.48479,11.91424 51.37695,40.97696 28.64059,-76.03139 -15.52693,-89.88624 -74.878951,-90.55012 z m 182.170351,0 c -58.2043,-8.34116 -39.12895,44.99447 -41.83395,83.71346 19.62635,21.51237 18.60643,-123.54795 54.84686,-50.17745 -5.31933,44.27059 20.16886,77.24228 17.64887,13.89528 1.41496,-19.84861 -3.47436,-50.86971 -30.66178,-47.43129 z m 86.07325,0 c -67.29027,-0.2462 -34.24407,126.01586 23.65469,83.04879 10.43956,55.47181 -102.41608,3.74861 -28.01083,44.17524 65.21104,0.69621 64.56526,-135.38614 17.0433,-124.74075 l -12.68716,-2.48328 0,0 z m 135.79256,0 c -82.84552,19.16388 85.33959,95.31695 -16.08359,72.2775 -36.2011,16.28837 90.29882,39.64858 48.6323,-24.23387 -28.11196,-10.09314 -69.6476,-44.66763 -9.5489,-26.90713 33.58921,3.93038 -10.57032,-31.0339 -22.99981,-21.1365 z m 95.8302,0 c -91.40689,3.50578 -7.35331,158.81373 38.36347,65.64133 11.33365,-27.23337 -4.41795,-67.90567 -38.36347,-65.64133 z m 95.16172,0 c -91.29,3.57466 -7.22834,158.76323 38.43724,65.59946 11.42748,-27.27615 -4.45033,-67.94384 -38.43724,-65.59946 z m 101.04251,0 c -58.20432,-8.34117 -39.12894,44.9945 -41.83395,83.71346 19.62641,21.51254 18.60618,-123.54793 54.84639,-50.17734 -5.3195,44.27071 20.16949,77.24219 17.64935,13.89524 1.41481,-19.84857 -3.47466,-50.86934 -30.66179,-47.43136 z m -593.69195,2.00482 c 0,29.53755 0,59.07511 0,88.61266 25.91281,-0.20357 21.90486,-94.53489 0,-88.61266 z m -201.951141,10.42501 c 76.0812,17.9561 -38.1497,118.80155 -25.6314,23.68668 2.2844,-11.96299 11.948,-24.75722 25.6314,-23.68668 z m 368.885331,0 c 71.96822,16.98347 -34.58097,114.57271 -23.68267,23.58556 1.93687,-11.44218 10.5527,-24.05106 23.68267,-23.58556 z m 230.55353,0 c 76.08107,17.95638 -38.1499,118.80136 -25.63152,23.68664 2.28452,-11.96299 11.94817,-24.75721 25.63152,-23.68664 z m 95.16172,0 c 76.08106,17.95637 -38.14989,118.80135 -25.63151,23.68664 2.28451,-11.96299 11.94816,-24.75723 25.63151,-23.68664 z m 158.78108,61.07992 c -10.49349,45.31573 49.4605,-6.86284 0,0 z m 47.44699,0 c -10.49349,45.31573 49.4605,-6.86284 0,0 z m 47.44699,0 c -10.49353,45.31589 49.46112,-6.8631 0,0 z"
       id="text3054" />
  </g>
</svg>
